<mxfile>
    <diagram name="Page-1" id="c4acf3e9-155e-7222-9cf6-157b1a14988f">
        <mxGraphModel dx="699" dy="617" grid="0" gridSize="10" guides="1" tooltips="1" connect="1" arrows="1" fold="1" page="1" pageScale="1" pageWidth="850" pageHeight="1100" background="none" math="0" shadow="0">
            <root>
                <mxCell id="0"/>
                <mxCell id="1" parent="0"/>
                <mxCell id="Gnr0yDt9QQ8g0LjmNMmj-38" value="&lt;p style=&quot;margin: 0px ; margin-top: 4px ; text-align: center&quot;&gt;&quot;Interface&quot;&lt;/p&gt;&lt;p style=&quot;margin: 0px ; margin-top: 4px ; text-align: center&quot;&gt;&lt;b&gt;Component&lt;/b&gt;&lt;/p&gt;&lt;hr size=&quot;1&quot;&gt;&lt;p style=&quot;margin: 0px ; margin-left: 4px&quot;&gt;+ execute()&lt;/p&gt;&lt;p style=&quot;margin: 0px ; margin-left: 4px&quot;&gt;&lt;br&gt;&lt;/p&gt;" style="verticalAlign=top;align=left;overflow=fill;fontSize=12;fontFamily=Helvetica;html=1;strokeWidth=2;" parent="1" vertex="1">
                    <mxGeometry x="357" y="239.5" width="160" height="71" as="geometry"/>
                </mxCell>
                <mxCell id="Gnr0yDt9QQ8g0LjmNMmj-59" style="edgeStyle=orthogonalEdgeStyle;rounded=0;orthogonalLoop=1;jettySize=auto;html=1;entryX=0;entryY=0.5;entryDx=0;entryDy=0;endSize=12;endArrow=openThin;endFill=0;startSize=12;" parent="1" source="Gnr0yDt9QQ8g0LjmNMmj-46" target="Gnr0yDt9QQ8g0LjmNMmj-38" edge="1">
                    <mxGeometry relative="1" as="geometry">
                        <mxPoint x="296" y="253.5" as="targetPoint"/>
                    </mxGeometry>
                </mxCell>
                <mxCell id="Gnr0yDt9QQ8g0LjmNMmj-46" value="&lt;b&gt;Client&lt;/b&gt;" style="html=1;rounded=1;strokeWidth=2;" parent="1" vertex="1">
                    <mxGeometry x="169" y="250" width="110" height="50" as="geometry"/>
                </mxCell>
                <mxCell id="Gnr0yDt9QQ8g0LjmNMmj-62" value="Decorator" style="text;html=1;strokeColor=none;fillColor=none;align=center;verticalAlign=middle;whiteSpace=wrap;rounded=0;fontSize=36;fontStyle=0;spacingTop=0;spacingLeft=0;" parent="1" vertex="1">
                    <mxGeometry x="323" y="125" width="215" height="40" as="geometry"/>
                </mxCell>
                <mxCell id="oHmb-REYbCbAcxUx24_l-5" style="edgeStyle=orthogonalEdgeStyle;rounded=0;orthogonalLoop=1;jettySize=auto;html=1;entryX=0.5;entryY=1;entryDx=0;entryDy=0;dashed=1;strokeWidth=2;endArrow=block;endFill=0;endSize=12;startSize=12;" parent="1" edge="1">
                    <mxGeometry relative="1" as="geometry">
                        <mxPoint x="558.0344827586207" y="397.0000000000001" as="sourcePoint"/>
                        <Array as="points">
                            <mxPoint x="558" y="356"/>
                            <mxPoint x="437" y="356"/>
                        </Array>
                        <mxPoint x="437" y="312" as="targetPoint"/>
                    </mxGeometry>
                </mxCell>
                <mxCell id="oHmb-REYbCbAcxUx24_l-8" style="edgeStyle=orthogonalEdgeStyle;rounded=0;orthogonalLoop=1;jettySize=auto;html=1;entryX=0.5;entryY=1;entryDx=0;entryDy=0;dashed=1;strokeWidth=2;endArrow=block;endFill=0;endSize=12;startSize=12;" parent="1" edge="1">
                    <mxGeometry relative="1" as="geometry">
                        <mxPoint x="330.5" y="397" as="sourcePoint"/>
                        <mxPoint x="437" y="312" as="targetPoint"/>
                        <Array as="points">
                            <mxPoint x="331" y="356"/>
                            <mxPoint x="437" y="356"/>
                        </Array>
                    </mxGeometry>
                </mxCell>
                <mxCell id="oHmb-REYbCbAcxUx24_l-6" value="&lt;p style=&quot;margin: 0px ; margin-top: 4px ; text-align: center&quot;&gt;&lt;span style=&quot;font-weight: 700&quot;&gt;Concrete Component&lt;/span&gt;&lt;br&gt;&lt;/p&gt;&lt;hr size=&quot;1&quot;&gt;&lt;p style=&quot;margin: 0px ; margin-left: 4px&quot;&gt;+ execute&lt;/p&gt;" style="verticalAlign=top;align=left;overflow=fill;fontSize=12;fontFamily=Helvetica;html=1;strokeWidth=2;" parent="1" vertex="1">
                    <mxGeometry x="240" y="397" width="181" height="53" as="geometry"/>
                </mxCell>
                <mxCell id="oHmb-REYbCbAcxUx24_l-7" value="&lt;p style=&quot;margin: 0px ; margin-top: 4px ; text-align: center&quot;&gt;&lt;span style=&quot;font-weight: 700&quot;&gt;Decorator&lt;/span&gt;&lt;br&gt;&lt;/p&gt;&lt;hr size=&quot;1&quot;&gt;&lt;p style=&quot;margin: 0px 0px 0px 4px&quot;&gt;+ Decorator&lt;br&gt;&lt;/p&gt;&lt;p style=&quot;margin: 0px 0px 0px 4px&quot;&gt;+ execute&lt;/p&gt;" style="verticalAlign=top;align=left;overflow=fill;fontSize=12;fontFamily=Helvetica;html=1;strokeWidth=2;" parent="1" vertex="1">
                    <mxGeometry x="462" y="397" width="181" height="66" as="geometry"/>
                </mxCell>
                <mxCell id="aU_UJE-d5Lcalvz8lPMH-8" value="" style="endArrow=block;startArrow=diamondThin;html=1;strokeColor=#FFFFFF;exitX=1;exitY=0.5;exitDx=0;exitDy=0;entryX=1;entryY=0.25;entryDx=0;entryDy=0;rounded=0;endFill=0;startFill=0;endSize=12;startSize=16;fillColor=#FFF;" parent="1" source="oHmb-REYbCbAcxUx24_l-7" target="Gnr0yDt9QQ8g0LjmNMmj-38" edge="1">
                    <mxGeometry width="50" height="50" relative="1" as="geometry">
                        <mxPoint x="710" y="385" as="sourcePoint"/>
                        <mxPoint x="760" y="335" as="targetPoint"/>
                        <Array as="points">
                            <mxPoint x="688" y="430"/>
                            <mxPoint x="688" y="257"/>
                        </Array>
                    </mxGeometry>
                </mxCell>
            </root>
        </mxGraphModel>
    </diagram>
</mxfile>